<mxfile host="Electron" modified="2024-06-28T00:04:14.484Z" agent="Mozilla/5.0 (Windows NT 10.0; Win64; x64) AppleWebKit/537.36 (KHTML, like Gecko) draw.io/23.1.5 Chrome/120.0.6099.109 Electron/28.1.0 Safari/537.36" version="23.1.5" etag="HfGrKyl6hz0VZ4CdKdca" type="device">
  <diagram id="4B8ZAaqqiLKJZjsz88yU" name="Page-1">
    <mxGraphModel dx="2074" dy="1356" grid="1" gridSize="10" guides="1" tooltips="1" connect="1" arrows="1" fold="1" page="0" pageScale="1" pageWidth="850" pageHeight="1100" background="none" math="0" shadow="0">
      <root>
        <mxCell id="0" />
        <mxCell id="1" parent="0" />
        <mxCell id="node0" value="&lt;p style=&quot;margin:0px;margin-top:4px;text-align:center;&quot;&gt;&lt;b&gt;Listener&lt;/b&gt;&lt;/p&gt;&lt;hr size=&quot;1&quot;/&gt;&lt;p style=&quot;margin:0 0 0 4px;line-height:1.6;&quot;&gt;+ Listener(ArrayList&amp;lt;VirtualView&amp;gt;): &lt;/p&gt;&lt;hr size=&quot;1&quot;/&gt;&lt;p style=&quot;margin:0 0 0 4px;line-height:1.6;&quot;&gt;+ notifyCardError(String): void&lt;br/&gt;+ notifyWinners(ArrayList&amp;lt;Player&amp;gt;): void&lt;br/&gt;+ notifyReconnection(String, ArrayList&amp;lt;Player&amp;gt;, ArrayList&amp;lt;GoldCard&amp;gt;, ArrayList&amp;lt;ResourceCard&amp;gt;, ArrayList&amp;lt;AchievementCard&amp;gt;, Resource, Resource): void&lt;br/&gt;+ notifyToPlace(Player): void&lt;br/&gt;+ notifyAchievementChoice(String, ArrayList&amp;lt;AchievementCard&amp;gt;, ArrayList&amp;lt;AchievementCard&amp;gt;): void&lt;br/&gt;+ notifyDrawCompleted(Player, Card, ArrayList&amp;lt;GoldCard&amp;gt;, Resource, ArrayList&amp;lt;ResourceCard&amp;gt;, Resource): void&lt;br/&gt;+ notifyStarterCard(ArrayList&amp;lt;Player&amp;gt;, ArrayList&amp;lt;GoldCard&amp;gt;, ArrayList&amp;lt;ResourceCard&amp;gt;, Resource, Resource): void&lt;br/&gt;+ notifyCardPlacement(String, Player, Card, int, int, int): void&lt;br/&gt;+ notifyDrawCard(String, ArrayList&amp;lt;GoldCard&amp;gt;, Resource, ArrayList&amp;lt;ResourceCard&amp;gt;, Resource): void&lt;/p&gt;" style="verticalAlign=top;align=left;overflow=fill;fontSize=14;fontFamily=Helvetica;html=1;rounded=0;shadow=0;comic=0;labelBackgroundColor=none;strokeWidth=1;" parent="1" vertex="1">
          <mxGeometry x="-55" y="-14" width="1005" height="294" as="geometry" />
        </mxCell>
      </root>
    </mxGraphModel>
  </diagram>
</mxfile>
